<svg width="20" height="20" viewBox="0 0 20 20" fill="none" xmlns="http://www.w3.org/2000/svg">
<mask id="mask0_1_92" style="mask-type:alpha" maskUnits="userSpaceOnUse" x="0" y="0" width="20" height="20">
<rect width="20" height="20" fill="#D9D9D9"/>
</mask>
<g mask="url(#mask0_1_92)">
<path d="M9.99984 18.3327C8.84706 18.3327 7.76373 18.1139 6.74984 17.6764C5.73595 17.2389 4.854 16.6452 4.104 15.8952C3.354 15.1452 2.76025 14.2632 2.32275 13.2493C1.88525 12.2355 1.6665 11.1521 1.6665 9.99935C1.6665 8.84657 1.88525 7.76324 2.32275 6.74935C2.76025 5.73546 3.354 4.85352 4.104 4.10352C4.854 3.35352 5.73595 2.75977 6.74984 2.32227C7.76373 1.88477 8.84706 1.66602 9.99984 1.66602C11.1526 1.66602 12.2359 1.88477 13.2498 2.32227C14.2637 2.75977 15.1457 3.35352 15.8957 4.10352C16.6457 4.85352 17.2394 5.73546 17.6769 6.74935C18.1144 7.76324 18.3332 8.84657 18.3332 9.99935C18.3332 11.1521 18.1144 12.2355 17.6769 13.2493C17.2394 14.2632 16.6457 15.1452 15.8957 15.8952C15.1457 16.6452 14.2637 17.2389 13.2498 17.6764C12.2359 18.1139 11.1526 18.3327 9.99984 18.3327Z" fill="#2E6F83"/>
<path d="M8.83366 13.8346L14.7087 7.95964L13.542 6.79297L8.83366 11.5013L6.45866 9.1263L5.29199 10.293L8.83366 13.8346Z" fill="white"/>
</g>
</svg>
