<svg width="24" height="24" viewBox="0 0 24 24" fill="none" xmlns="http://www.w3.org/2000/svg">
<g clip-path="url(#clip0_37_582)">
<rect width="23.3333" height="23.3333" transform="translate(0.333008 0.332031)" fill="#2E6F83" fill-opacity="0.08"/>
<path d="M12.0003 3.66797C7.40033 3.66797 3.66699 7.4013 3.66699 12.0013C3.66699 16.6013 7.40033 20.3346 12.0003 20.3346C16.6003 20.3346 20.3337 16.6013 20.3337 12.0013C20.3337 7.4013 16.6003 3.66797 12.0003 3.66797ZM12.0003 18.668C8.31699 18.668 5.33366 15.6846 5.33366 12.0013C5.33366 8.31797 8.31699 5.33464 12.0003 5.33464C15.6837 5.33464 18.667 8.31797 18.667 12.0013C18.667 15.6846 15.6837 18.668 12.0003 18.668Z" fill="#2E6F83"/>
<path d="M12.0003 16.168C14.3015 16.168 16.167 14.3025 16.167 12.0013C16.167 9.70012 14.3015 7.83464 12.0003 7.83464C9.69914 7.83464 7.83366 9.70012 7.83366 12.0013C7.83366 14.3025 9.69914 16.168 12.0003 16.168Z" fill="#2E6F83"/>
</g>
<defs>
<clipPath id="clip0_37_582">
<rect x="0.333008" y="0.332031" width="23.3333" height="23.3333" rx="11.6667" fill="white"/>
</clipPath>
</defs>
</svg>
